<svg id="Layer_1" data-name="Layer 1" xmlns="http://www.w3.org/2000/svg" viewBox="0 0 485 485"><defs><style>.cls-1{fill:#cd00b6;}.cls-2{fill:#fff;}</style></defs><title>Artboard 5</title><rect class="cls-1" x="-8.58" y="-7.67" width="501" height="501"/><path class="cls-2" d="M28.79,375.89q10.47,0,17.51,4.79v-.54q0-5.07,5-5.07t5.17,4.38c0,.55-.08,1.92-.26,4.11a29.05,29.05,0,0,0-.52,5.48,42,42,0,0,0,.39,4.79,42.51,42.51,0,0,1,.39,4.8q0,5.21-5.1,5.2c-3.29,0-5-1.45-5.1-4.38v-4.52q-.15-4.11-5.41-7.05a24.74,24.74,0,0,0-12.32-2.95,21.47,21.47,0,0,0-12.08,3.22q-4.87,3.23-4.87,8,0,8.77,13.81,10.42l9.1,1.09Q61.22,410.82,61.21,427q0,9.86-8.6,15.95T30.07,449q-13,0-22.53-6.44v2.6q0,4.94-5.33,4.94c-3.88,0-5.81-1.88-5.81-5.62q0,1,.94-7.12a23.67,23.67,0,0,0,.31-3.84A29.36,29.36,0,0,0-3,427.4a22.61,22.61,0,0,1-.63-4.52q0-4.8,5-4.8c2.2,0,3.58.46,4.16,1.37s.91,3.34,1,7.26,2.46,7.12,7.06,9.59S24.12,440,31.24,440q7.68,0,12.71-3.43t5-8.63q0-9.3-16.95-10.82-16.16-1.5-24.64-5.54T-1.09,397.4q0-9.58,8.29-15.55T28.79,375.89Z"/><path class="cls-2" d="M114.1,447.4v-6.17Q105.33,449,92.5,449,76.85,449,67.3,439t-9.54-26.78q0-16.71,9.18-26.51t24.87-9.79a32.16,32.16,0,0,1,24.33,10.27c-.21-1.82-.32-2.69-.32-2.6,0-3.92,1.78-5.89,5.34-5.89s5.34,2.38,5.34,7.12l-.32,2.88-.31,16.3v26.17l.31,19.58q.16,8.36,1.11,10.89c.63,1.69,2,2.54,4.12,2.54-.11,0,1.16-.23,3.8-.69a15.92,15.92,0,0,1,2.54-.27c3.37,0,5.07,1.51,5.07,4.52s-1.94,4.52-5.81,4.52c-1.88,0-4.71-.14-8.47-.41s-6.6-.41-8.48-.41-4.68.14-8.39.41-6.47.41-8.24.41c-3.88,0-5.81-1.53-5.81-4.59s1.76-4.45,5.28-4.45a25.81,25.81,0,0,1,5,.64,13.64,13.64,0,0,0,2,.32q3.42,0,4-6.85Q114.1,455.48,114.1,447.4Zm0-31.37v-3.84q-.31-9.18-1.41-13.15a18.94,18.94,0,0,0-8.32-10.68,21.59,21.59,0,0,0-11.93-3.43q-10.35,0-16.16,7.12t-5.81,19.87q0,13.29,6,20.68T93.07,440A22.38,22.38,0,0,0,107,435.55a16.51,16.51,0,0,0,6.82-11.17A72.79,72.79,0,0,0,114.1,416Z"/><path class="cls-2" d="M193.51,443.29V439q-8.32,10-24.64,10-18.52,0-25.74-10a19,19,0,0,1-3.45-10.27q-.15-2.88-.16-12.06V405.34q0-18.76-4.59-18.76c-.64,0-1.64.06-3,.2s-2.43.21-3.17.21q-5.55,0-5.55-4.46,0-4.3,6.75-4.31a44.62,44.62,0,0,1,4.63.34,44.62,44.62,0,0,0,4.63.34,46,46,0,0,0,4.86-.41q2.35-.27,2.67-.27c3.24,0,4.87,1.74,4.87,5.2v11.79l-.47,10.13v8.91q0,11.91,2.19,17.12Q156.95,440,170.6,440a25.65,25.65,0,0,0,11.92-2.67,15.23,15.23,0,0,0,7.22-7.06q2.52-5.34,2.51-20.27V393.56q-.78-6.57-4.08-6.57h-4.71c-3.66,0-5.49-1.38-5.49-4.12q0-4.65,6.12-4.65,1.41,0,4.32.27c1.93.19,3.37.28,4.31.28a36.2,36.2,0,0,0,3.77-.28c1.67-.18,2.93-.27,3.77-.27,3.14,0,4.7,1.47,4.7,4.39a11.4,11.4,0,0,1-.31,3,112.47,112.47,0,0,0-.78,15.38v21.14q0,8.39.15,9.34c.53,4.85,2,7.28,4.4,7.28a20.48,20.48,0,0,0,3.14-.35,21.4,21.4,0,0,1,3.14-.34q5.33,0,5.33,4.52t-6.59,4.66q-1.41,0-4.08-.27c-2.62-.28-4.24-.42-4.87-.42-.31,0-1.41.1-3.29.28a16.07,16.07,0,0,1-3.3.41Q193.51,447.26,193.51,443.29Z"/><path class="cls-2" d="M278.72,448.49q-12.87,0-15.85-9.72-8,10.28-25.11,10.27-12.7,0-20.32-5.48a17.16,17.16,0,0,1-7.61-14.66q0-11.37,11.14-16.71a31.57,31.57,0,0,1,7.3-2.67q3.06-.61,12.32-1.58,13.18-1.23,17.18-3.42t4-8.08a10.31,10.31,0,0,0-4.47-8.84q-4.47-3.21-12.48-3.22a26.61,26.61,0,0,0-13.18,3.43c-1.57.91-2.35,1.87-2.35,2.87,0,.37.47.83,1.41,1.37a5.08,5.08,0,0,1,2.2,4.66,5.49,5.49,0,0,1-2.28,4.52,9,9,0,0,1-5.73,1.78,9.84,9.84,0,0,1-6.82-2.46,7.81,7.81,0,0,1-2.75-6q0-7.66,8.71-13.15t21.11-5.48q28.56,0,28.56,23.92v27.61a50.92,50.92,0,0,0,.31,7.79Q275,440,279.35,440q5.49,0,5.49-8.71v-6.66q0-4.36,4.79-4.36,5.1,0,5.1,6.58v8.49Q294.41,448.5,278.72,448.49ZM261.3,421.23v-9.72a20.88,20.88,0,0,1-7.26,3.83q-3.84,1.1-13.68,1.92-17.82,1.51-17.82,11.51a9.51,9.51,0,0,0,4.32,8.22q4.3,3,11.69,3,10.51,0,16.55-5T261.3,421.23Z"/><path class="cls-2" d="M308.23,382.12v3.77q8.16-10,21.81-10,11,0,17.81,5.41a17,17,0,0,1,6.83,13.91,13.94,13.94,0,0,1-3.45,9.79,11.79,11.79,0,0,1-9.11,3.77,9.8,9.8,0,0,1-6.12-1.92,5.71,5.71,0,0,1-2.51-4.66,5.15,5.15,0,0,1,1.89-3.9,6.3,6.3,0,0,1,4.39-1.71,10.35,10.35,0,0,1,2,.41,6.14,6.14,0,0,0,.94-3q0-4-4-6.71a17.22,17.22,0,0,0-10-2.74q-12.24,0-16.32,9.59Q310,400,310,411.92v9q0,9.18.16,10.27Q310.89,439,315,439a20.46,20.46,0,0,0,4.24-.47,15.54,15.54,0,0,1,3-.35q5,0,5,4.32c0,3.15-2.13,4.72-6.41,4.72h-.62q-2.35,0-7.12-.48t-7.12-.48q-6.26,0-9.85.27l-8.76.69c-4.28,0-6.41-1.6-6.41-4.8,0-2.83,2-4.24,6-4.24a15.47,15.47,0,0,1,2.37.13l2.38.42a15.34,15.34,0,0,0,2.22.27c2.63,0,4.06-2.1,4.27-6.3v-7l-.47-31.09q-.46-8.09-4.71-8.08a19.29,19.29,0,0,0-3.45.41,20.5,20.5,0,0,1-3.45.41q-5.18,0-5.18-4.39,0-4.78,6.75-4.79a47.17,47.17,0,0,1,4.71.34,46.83,46.83,0,0,0,4.7.34,37.68,37.68,0,0,0,4.08-.34,11.39,11.39,0,0,1,3-.34Q308.23,378.22,308.23,382.12Z"/><path class="cls-2" d="M417.61,406.44q0,5.21-.79,6.37c-.52.77-2,1.16-4.55,1.16h-49.9a4.9,4.9,0,0,0-2.67.48,1.87,1.87,0,0,0-.63,1.58,22.9,22.9,0,0,0,7.06,17.12A24.24,24.24,0,0,0,383.71,440a25,25,0,0,0,12.63-3.29q5.73-3.29,7.46-8.35l1.41-4q1.1-3.28,5.18-3.29,5.81,0,5.81,5.21,0,8.91-10.36,15.82A41.43,41.43,0,0,1,382.3,449q-16.49,0-26.21-9.66t-9.73-26q0-16.71,10.36-27.12t27-10.41q14.75,0,24.33,8.63A28.22,28.22,0,0,1,417.61,406.44Zm-57-3.56c0,1.28,1.15,1.91,3.45,1.91H401.6c2.2,0,3.3-.63,3.3-1.91q0-7.26-6.28-12.61a22.06,22.06,0,0,0-14.75-5.34,25.64,25.64,0,0,0-16,5.55Q360.65,396,360.64,402.88Z"/><path class="cls-2" d="M449.15,375.89q15.54,0,23.23,10.55V372.6a41.09,41.09,0,0,0-.31-6.71c-.53-2.83-2-4.25-4.4-4.25a20.87,20.87,0,0,0-3.53.42,21.73,21.73,0,0,1-3.53.41q-5.81,0-5.81-4.39t7.85-4.52c.84,0,2.35.09,4.55.28l5.18.41a34.68,34.68,0,0,0,4.08-.35,36.49,36.49,0,0,1,4.08-.34q4.4,0,4.39,5.49v1.51c-.1.27-.21,2.7-.31,7.27q0,.82-.47,10.57-.31,6.86-.32,10.43v36.35q.17,9.06,1,11.25c.54,1.47,1.81,2.2,3.84,2.2a13.85,13.85,0,0,0,3.2-.28q2.55-.27,3.51-.27,5.91,0,5.91,4.52t-7.06,4.66c-1,0-2.64-.12-4.78-.34s-3.74-.35-4.79-.35c-.31,0-1.52.1-3.61.28a16,16,0,0,1-3.3.41q-4.23,0-4.23-4.93v-3q-8.3,9.74-24.11,9.73T423.7,438.9q-9.7-10.12-9.7-26.57t9.57-26.51Q433.14,375.89,449.15,375.89Zm22.6,48.36a87.52,87.52,0,0,0,.63-11.65q0-9.17-.79-12.46a16.8,16.8,0,0,0-6.8-10.69,24.36,24.36,0,0,0-14.53-4.52q-11.07,0-17.31,7.26t-6.24,19.86q0,13,6.48,20.48t17.7,7.47q8.53,0,14.22-4.32A16.57,16.57,0,0,0,471.75,424.25Z"/><path class="cls-2" d="M101.51,157.66l99-97.14H90.08q-18.57,0-24.76,2.38Q53.41,66.73,53.41,81.47q0,4.77,1,13.81t1,13.81q0,24.76-16.67,24.76-16.18,0-16.19-20.48,0-5.7.72-17.38t.71-17.38V43.86q0-12.87,4.74-16t23.71-3.09H169q9.48,0,32.24-.95,11.38-.48,26.56-.48,28,0,28,17.07,0,10.92-11.91,22.3L156.26,146.7h13.81q40.47,0,66.42,26t25.95,66.43q0,50.47-36.9,82.37t-95,31.9q-53.33,0-89-26t-35.71-65q0-22.38,12.85-37.85t31.91-15.48q12.38,0,20.23,7.38t7.86,19.28q0,23.82-28.09,23.81H45.32v3.34q0,23.33,25.95,40.47t61.18,17.14q39.53,0,64.76-22.62T222.45,240q0-61.89-70.48-61.9a183.77,183.77,0,0,0-38.56,4.29,37.12,37.12,0,0,1-8.1,1q-11.43,0-11.43-12.38Q93.88,165.28,101.51,157.66Z"/><path class="cls-2" d="M255.19,180.51q12.38-9.51,33.33-17.14Q262.33,148.61,252.81,135t-9.53-35q0-36.18,30.71-60.71t75.48-24.52q44.75,0,75.46,24.52T455.65,100q0,21.43-9.77,35t-35.47,28.33q20,7.62,32.86,17.14,33.32,25.25,33.33,70,0,45.71-34.76,74.28t-90.95,28.56q-58.56,0-93.8-28.09t-35.24-74.75Q221.85,206.21,255.19,180.51Zm96.18,1q-41,0-64,18.33T264.23,250q0,31,23.57,50.23t61.67,19.29q38.08,0,61.65-19.29T434.69,250q0-30.94-22.85-49.76T351.37,181.46Zm-1.9-132.84q-28.58,0-46.91,14.52T284.23,100q0,20,18.1,32.62t47.14,12.62q29,0,46.9-12.62t17.85-33.1q0-22.36-18.33-36.66T349.47,48.62Z"/></svg>
